<?xml version="1.0" standalone="no"?>
<svg xmlns:xlink="http://www.w3.org/1999/xlink" id="wave" style="transform:rotate(0deg); transition: 0.3s" viewBox="0 0 1440 490" version="1.1" xmlns="http://www.w3.org/2000/svg"><defs><linearGradient id="sw-gradient-0" x1="0" x2="0" y1="1" y2="0"><stop stop-color="rgba(45, 114, 99, 1)" offset="0%"/><stop stop-color="rgba(84, 202, 178, 1)" offset="100%"/></linearGradient></defs><path style="transform:translate(0, 0px); opacity:1" fill="url(#sw-gradient-0)" d="M0,343L48,294C96,245,192,147,288,122.5C384,98,480,147,576,147C672,147,768,98,864,106.2C960,114,1056,180,1152,236.8C1248,294,1344,343,1440,359.3C1536,376,1632,359,1728,343C1824,327,1920,310,2016,326.7C2112,343,2208,392,2304,408.3C2400,425,2496,408,2592,383.8C2688,359,2784,327,2880,269.5C2976,212,3072,131,3168,130.7C3264,131,3360,212,3456,236.8C3552,261,3648,229,3744,179.7C3840,131,3936,65,4032,32.7C4128,0,4224,0,4320,65.3C4416,131,4512,261,4608,277.7C4704,294,4800,196,4896,196C4992,196,5088,294,5184,334.8C5280,376,5376,359,5472,318.5C5568,278,5664,212,5760,187.8C5856,163,5952,180,6048,212.3C6144,245,6240,294,6336,334.8C6432,376,6528,408,6624,408.3C6720,408,6816,376,6864,359.3L6912,343L6912,490L6864,490C6816,490,6720,490,6624,490C6528,490,6432,490,6336,490C6240,490,6144,490,6048,490C5952,490,5856,490,5760,490C5664,490,5568,490,5472,490C5376,490,5280,490,5184,490C5088,490,4992,490,4896,490C4800,490,4704,490,4608,490C4512,490,4416,490,4320,490C4224,490,4128,490,4032,490C3936,490,3840,490,3744,490C3648,490,3552,490,3456,490C3360,490,3264,490,3168,490C3072,490,2976,490,2880,490C2784,490,2688,490,2592,490C2496,490,2400,490,2304,490C2208,490,2112,490,2016,490C1920,490,1824,490,1728,490C1632,490,1536,490,1440,490C1344,490,1248,490,1152,490C1056,490,960,490,864,490C768,490,672,490,576,490C480,490,384,490,288,490C192,490,96,490,48,490L0,490Z"/></svg>